<?xml version="1.0" encoding="utf-8"?>
<!-- Generator: Adobe Illustrator 18.1.1, SVG Export Plug-In . SVG Version: 6.00 Build 0)  -->
<svg version="1.1" id="Layer_1" xmlns="http://www.w3.org/2000/svg" xmlns:xlink="http://www.w3.org/1999/xlink" x="0px" y="0px"
	 viewBox="1.1 91.1 609.8 609.8" enable-background="new 1.1 91.1 609.8 609.8" xml:space="preserve">
<path fill="#4156A1" opacity="0.64" d="M306,700.9c-81.4,0-158-31.7-215.6-89.3C32.8,554,1.1,477.4,1.1,396c0-81.4,31.7-158,89.3-215.6
	S224.6,91.1,306,91.1c81.4,0,158,31.7,215.6,89.3c57.6,57.6,89.3,134.2,89.3,215.6c0,81.4-31.7,158-89.3,215.6
	C464,669.2,387.4,700.9,306,700.9z M306,116.1c-74.8,0-145.1,29.1-197.9,82c-52.9,52.9-82,123.2-82,197.9
	c0,74.8,29.1,145.1,82,197.9c52.9,52.9,123.2,82,197.9,82c74.8,0,145.1-29.1,197.9-82s82-123.2,82-197.9s-29.1-145.1-82-197.9
	S380.8,116.1,306,116.1z"/>
<rect x="182" y="288.3" fill="#4156A1" width="248.1" height="25"/>
<rect x="182" y="383.5" fill="#4156A1" width="248.1" height="25"/>
<rect x="182" y="478.7" fill="#4156A1" width="248.1" height="25"/>
</svg>
