<svg xmlns="http://www.w3.org/2000/svg" viewBox="-2424.377 -2382.836 116.674 94.569">
  <defs>
    <style>
      .cls-1 {
        fill: #4156a1;
      }

      .cls-2 {
        fill: #fff;
      }

      .cls-3 {
        fill: none;
        stroke: #fff;
        stroke-width: 1px;
      }
    </style>
  </defs>
  <g id="group-29" transform="translate(-2424.377 -2382.836)">
    <path id="path" class="cls-1" d="M86.549,93.711a3.462,3.462,0,0,1-1.332.475c-3.9.285-6.521-2.043-9-4.751a4.782,4.782,0,0,1-.827-.855,2.392,2.392,0,0,1-.138-1c0-4.039.23-8.125-.046-12.163-.367-4.846-.781-9.787-5.832-12.448-1.469,1.378-2.847.9-4.27-.333a6.878,6.878,0,0,0-2.342-1.188c-1.7-.665-3.444-1.235-5.189-1.805-.781,1.235.643,3.421-1.424,4.466-.781,3.944-4.179,4.514-7.026,5.7-1.791.76-3.765,1.045-5.51,1.805-1.929.808-2.342,2.043-1.24,3.848a92.014,92.014,0,0,0,5.556,7.84c1.24,1.663,2.48,3.088,4.867,3.563,2.709.475,3.582,2.566,3.077,5.131-3.077,1.52-6.337,1.615-8.908-.523-1.975-1.663-3.168-4.371-4.638-6.652-.459-.713-.872-1.473-1.286-2.233-.138,3.136.551,5.749,3.352,7.317,1.424.808,2.02,3.231,1.148,4.133-.6.665-5.6,1.188-6.429.523A59.425,59.425,0,0,1,34.8,90.481a2.384,2.384,0,0,1-.643-1.425c-.184-2-.138-4.086-.413-6.034-.459-2.993-.551-6.367-1.975-8.885-2.25-4.038-.964-4.846,1.745-7.7.367-.38.964-.713,1.1-1.14.321-.95.872-2.328.459-2.9a24.1,24.1,0,0,0-3.582-3.658c-.689,2.233-1.01,4.419-1.929,6.319-1.929,4.038-4.454,7.6-9.138,8.6a9.838,9.838,0,0,0-1.515.57c-3.765,1.14-7.531,2.281-11.342,3.373a3.584,3.584,0,0,1-1.332-.238c.138-.57.23-1,.276-1.188-2.3-.618-4.454-1.235-6.612-1.805a6.771,6.771,0,0,0,3.995-4.941,5.3,5.3,0,0,1,2.48-3.658c.827-.665,1.975-1,2.8-1.71a34.991,34.991,0,0,0,3.352-3.611c.551-.618.872-1.615,1.515-1.9,2.8-1.235,4.776-2.993,4.959-6.319.138-1.948.184-3.9.367-5.891.413-5.179,1.653-10.025,6.429-12.781,2.617-1.52,5.648-2.328,8.128-4.038,2.25-1.52,4.5-1.568,6.934-1.378,3.306.238,6.7,1.235,9.873.713,4.041-.665,8.036-.428,12.077-.523a1.375,1.375,0,0,0,.6-.143c2.571-.808,5.189-1.663,7.76-2.471.184-.048.367-.238.551-.238,3.031.048,5.74-.19,8.265-2.518,2.25-2.043,5.235-3.231,8.357-5.084a15.775,15.775,0,0,1-3.122-1.33,4.151,4.151,0,0,1-1.745-2.091c-.092-.523,1.01-1.663,1.7-1.805a47.07,47.07,0,0,1,6.842-.713,6.96,6.96,0,0,0,4.592-1.758c.964-.855,2.526-1.093,3.811-1.568,1.24-.428,2.755-.523,3.719-1.33,2.158-1.758,3.949-3.943,6.015-5.8.689-.618,1.883-1.378,2.48-1.14a6.507,6.507,0,0,1,3.031,2.566c1.7,2.756.918,6.129-1.469,8.98-2.342,2.756-4.454,5.654-4.408,9.692a12.376,12.376,0,0,1-1.01,4.181c-.735,2-2.021,3.658-1.929,6.082.046,1.473-.735,3.848-1.791,4.324-2.434,1.093-3.031,3.373-3.995,5.274a95.772,95.772,0,0,1-6.7,10.833c-.367.57-1.056.855-1.561,1.33-.735.665-1.745,1.235-2.066,2.091-3.49,8.6-5.189,17.532-3.9,26.844.276,2.043.321,4.419,3.168,5.226,1.01.285,1.607,2.233,2.2,3.136C90.039,91.906,88.294,92.809,86.549,93.711Zm-4.913-21.57H81.13v8.742c.184,0,.367.047.505.047v-8.79Z" transform="translate(0.1 -0.306)"/>
    <ellipse id="ellipse" class="cls-2" cx="6.291" cy="6.509" rx="6.291" ry="6.509" transform="translate(30.72 34.158)"/>
    <ellipse id="ellipse-2" data-name="ellipse" class="cls-2" cx="2.755" cy="2.851" rx="2.755" ry="2.851" transform="translate(45.46 57.629)"/>
    <ellipse id="ellipse-3" data-name="ellipse" class="cls-2" cx="4.73" cy="4.894" rx="4.73" ry="4.894" transform="translate(56.159 33.54)"/>
    <ellipse id="ellipse-4" data-name="ellipse" class="cls-2" cx="3.811" cy="3.943" rx="3.811" ry="3.943" transform="translate(97.21 14.868)"/>
    <ellipse id="ellipse-5" data-name="ellipse" class="cls-2" cx="2.158" cy="2.233" rx="2.158" ry="2.233" transform="translate(77.282 42.71)"/>
    <ellipse id="ellipse-6" data-name="ellipse" class="cls-2" cx="3.077" cy="3.183" rx="3.077" ry="3.183" transform="translate(77.879 62.333)"/>
    <ellipse id="ellipse-7" data-name="ellipse" class="cls-2" cx="4.73" cy="4.894" rx="4.73" ry="4.894" transform="translate(14.556 58.437)"/>
    <path id="path-2" data-name="path" class="cls-3" d="M59.625,61.756,83.5,59.522,123.636,39.9,103.569,86.6l-1.515-20.573L83.5,59.522,70.829,81.568l-11.2-19.812L41.9,84.419" transform="translate(-22.614 -21.088)"/>
    <path id="path-3" data-name="path" class="cls-3" d="M104.9,81.568l31.225-15.536,6.985-8.457,14.6-17.674" transform="translate(-56.685 -21.088)"/>
  </g>
</svg>
