<svg xmlns="http://www.w3.org/2000/svg" viewBox="0 0 100 98.2"><path d="M90.1 0.1c5.7-0.1 10 3.6 9.9 10.4 -0.1 9 0 18.1 0 27.2v6c0.3 3.8-1.4 6.7-4.1 9.2 -10.5 9.6-20.9 19.3-31.3 28.9 -4.8 4.4-9.6 8.8-14.3 13.3 -2.3 2.1-4.7 3.3-7.8 2.9 -2.4-0.3-4.2-1.3-5.9-3C25.2 82.9 13.9 70.7 2.7 58.5c-3.9-4.3-3.6-9.4 0.9-13.6C16.3 33.1 29 21.3 41.8 9.4 44 7.3 46.5 5.2 48.7 3s4.7-3.1 7.8-3h17.4M43.9 88.5c0.2-0.1 0.6-0.4 1-0.8C59.7 74 74.6 60.2 89.5 46.5c1.4-1.3 1.8-2.6 1.8-4.3 -0.1-10.4-0.1-20.8-0.1-31.3 0-0.5-0.2-0.9-0.3-1.6 -1.1-0.1-2.1-0.3-3-0.3H59.1c-2.3 0-4 0.4-5.7 2 -13.8 13-27.8 25.8-41.7 38.8 -0.7 0.7-1.4 1.4-1.9 1.9C21.2 64.2 32.4 76.1 43.9 88.5z"/><path d="M84.6 27.9c-0.3 6.4-5.5 11-12.1 10.7 -6.4-0.4-11.1-5.7-10.6-12.2 0.4-6.2 5.7-10.9 11.9-10.6C80.1 16.2 84.9 21.4 84.6 27.9zM73 32.6c2.9 0.1 5.4-2.2 5.5-5 0.2-3-2.3-5.6-5.3-5.6 -2.8 0-5.3 2.4-5.3 5.2C67.8 30 70.1 32.5 73 32.6z"/></svg>
