<svg xmlns="http://www.w3.org/2000/svg" viewBox="0 0 100 100"><path d="M50.3 0C78-0.3 100.5 23.4 100 50.7 99.5 77.8 77.4 100 49.9 100 22.3 100-0.1 77.5 0 49.8 0.1 21.1 24-0.7 50.3 0zM90.9 49.8C91.3 27.5 72.2 8.9 50 8.8 29.5 8.7 9.1 25.6 9 49.7 8.9 72.4 27.4 90.9 50.2 90.9 72.7 90.9 90.9 72.5 90.9 49.8z"/><path d="M48.1 69.5c0-7.8 0-15.3 0-23.3 -1.6 0-3.1 0.1-4.5 0 -1.7-0.1-2.8-0.9-2.9-2.8 -0.1-1.6 0.9-2.9 2.7-3 2.6-0.2 5.3-0.2 7.9 0 2 0.2 2.8 1.3 2.8 3.7 0.1 4.3 0 8.6 0 12.8 0 4 0 8 0 12.4 1.5 0.1 2.7 0.2 3.9 0.3 1.7 0.1 2.5 1.2 2.5 2.7 0 1.6-0.9 2.7-2.5 2.8 -4.5 0.1-9.1 0.1-13.6 0 -1.6 0-2.5-1.2-2.5-2.8 0-1.6 0.9-2.6 2.6-2.7C45.7 69.6 46.7 69.6 48.1 69.5z"/><path d="M56.2 28.8c0 3.3-2.7 6.1-6 6 -3.1 0-5.7-2.7-5.8-5.8 -0.1-3.4 2.5-6.1 5.8-6.2C53.5 22.8 56.2 25.5 56.2 28.8z"/></svg>
