<svg xmlns="http://www.w3.org/2000/svg" viewBox="0 0 124.3 100"><path d="M62 100c-15.9 0-31.9 0-47.8 0 -1.7 0-3.5 0-5.2-0.4 -5.4-1.2-8.8-5.1-8.9-10.7 -0.1-6.1 0-12.3 0-18.5C0.1 56 0.4 41.7 0 27.3c-0.2-7.6 4.6-13.6 13.1-13.2 4.1 0.2 8.2-0.1 12.3 0.1 2.1 0.1 3.5-0.7 4.6-2.5 1.3-2.2 2.8-4.2 4.2-6.3C36.6 1.8 39.9 0 44.1 0c11.5 0 23 0 34.5 0 4.5 0 7.8 1.9 10.3 5.7 1.8 2.8 3.3 6.3 5.9 7.7 2.4 1.4 6.1 0.5 9.3 0.6 2.5 0.1 5 0 7.6 0.1 7.7 0.3 12 4.5 12.1 12.2 0.2 20.3 0.1 40.7 0.5 61 0.1 6.6-4 12.7-12.6 12.7C95.1 100 78.6 100 62 100zM112.4 88.6c0-21.2 0-41.9 0-62.9 -1.8-0.1-3.2-0.2-4.6-0.3 -5-0.1-10.1-0.3-15.1-0.2 -3.1 0.1-5.3-0.9-6.9-3.8 -1.4-2.6-3.4-4.9-4.9-7.5 -1.2-2-2.7-2.7-5-2.7 -9.6 0.1-19.3 0.1-28.9 0 -2.4 0-3.8 0.8-5 2.8 -1.7 2.8-3.8 5.4-5.5 8.3 -1.3 2.3-3 3.3-5.7 3.2 -5.2-0.2-10.4-0.1-15.6 0 -1.2 0-2.4 0.3-3.5 0.4 -1 10.3-0.6 59.3 0.6 62.7C45.5 88.6 78.8 88.6 112.4 88.6z"/><path d="M63.3 81.4c-14.9 0-26.4-11.5-26.4-26.3 0-14.7 11.6-26.6 26.2-26.6 14.8-0.1 26.9 12 26.7 26.7C89.6 72.9 74.6 82.2 63.3 81.4zM63.3 72.1c9.5 0 17.2-7.7 17.1-17.1s-7.9-17.1-17.3-17c-9.2 0.1-16.8 7.7-16.9 16.9C46.2 64.3 53.9 72.1 63.3 72.1z"/></svg>
