<svg xmlns="http://www.w3.org/2000/svg" viewBox="0 0 612.1 612.1"><path d="M307.8 0.1C477.4-1.7 615.1 143.3 612 310.4c-3.1 165.9-138.3 301.7-306.6 301.7C136.5 612.1-0.6 474.4 0 304.9 0.6 129.2 146.9-4.2 307.8 0.1zM556.3 304.9C558.8 168.4 441.9 54.6 306 54 180.5 53.3 55.7 156.8 55.1 304.3c-0.6 138.9 112.6 252.1 252.1 252.1C444.9 556.4 556.3 443.8 556.3 304.9z"/><path d="M342.1 460.2c0 20.2-16.5 37.3-36.7 36.7 -19 0-34.9-16.5-35.5-35.5 -0.6-20.8 15.3-37.3 35.5-37.9C325.6 423.4 342.1 440 342.1 460.2z"/><path d="M230.9 160.4c19-20.2 45.1-30.4 78.3-30.4 30.7 0 55.3 8.7 73.7 26 18.5 17.3 27.7 39.4 27.7 66.4 0 16.3-3.3 29.5-10 39.7 -6.7 10.2-20.4 25.1-41.2 44.8 -15.1 14.3-24.9 26.4-29.5 36.4 -3 6.5-5 14.9-6 25.4 -1 10.5-9.8 18.6-20.4 18.6h-0.1c-12.1 0-21.6-10.5-20.4-22.6 1.2-11.9 3.5-22.1 6.8-30.6 5.2-13.5 16.9-28.9 34.9-46.3l18.8-18.2c5.6-5.2 10.2-10.7 13.8-16.4 6.4-10 9.6-20.4 9.6-31.2 0-15.1-4.6-28.2-13.8-39.2 -9.2-11.1-24.4-16.6-45.6-16.6 -26.2 0-44.4 9.5-54.4 28.6 -3.9 7.2-6.6 16.7-8.2 28.3 -1.4 10.1-10.1 17.6-20.3 17.6h-0.3c-12.5 0-22.2-11.1-20.3-23.5C207.7 194.5 216.6 175.6 230.9 160.4z"/></svg>
